<svg xmlns="http://www.w3.org/2000/svg" viewBox="0 0 62 62"><defs><style>.cls-1{fill:none;stroke:#345972;stroke-linecap:round;stroke-linejoin:round;stroke-width:2px;}</style></defs><title>InnovationsSlider-Icon3</title><g id="Слой_2" data-name="Слой 2"><g id="Layer_1" data-name="Layer 1"><rect class="cls-1" x="38.5" y="12.25" width="15" height="22.5"/><polygon class="cls-1" points="43.75 61 34.75 61 38.5 34.75 47.5 34.75 43.75 61"/><path class="cls-1" d="M8.5,16h0a0,0,0,0,1,0,0V31a0,0,0,0,1,0,0h0A7.5,7.5,0,0,1,1,23.5v0A7.5,7.5,0,0,1,8.5,16Z"/><path class="cls-1" d="M58.5,16H61a0,0,0,0,1,0,0V31a0,0,0,0,1,0,0H58.5a5,5,0,0,1-5-5V21A5,5,0,0,1,58.5,16Z" transform="translate(114.5 47) rotate(180)"/><polygon class="cls-1" points="38.5 12.25 23.5 8.5 8.5 1 8.5 46 23.5 38.5 38.5 34.75 53.5 34.75 53.5 12.25 38.5 12.25"/></g></g></svg>