<svg xmlns="http://www.w3.org/2000/svg" viewBox="0 0 62 62"><defs><style>.cls-1{fill:none;stroke:#345972;stroke-linecap:round;stroke-linejoin:round;stroke-width:2px;}</style></defs><title>InnovationsSlider-Icon1</title><g id="Слой_2" data-name="Слой 2"><g id="Layer_1" data-name="Layer 1"><rect class="cls-1" x="25" y="1" width="12" height="12" rx="6" ry="6"/><rect class="cls-1" x="49" y="1" width="12" height="12" rx="6" ry="6"/><rect class="cls-1" x="1" y="1" width="12" height="12" rx="6" ry="6"/><rect class="cls-1" x="25" y="25" width="12" height="12" rx="6" ry="6"/><rect class="cls-1" x="49" y="25" width="12" height="12" rx="6" ry="6"/><rect class="cls-1" x="1" y="25" width="12" height="12" rx="6" ry="6"/><rect class="cls-1" x="25" y="49" width="12" height="12" rx="6" ry="6"/><rect class="cls-1" x="49" y="49" width="12" height="12" rx="6" ry="6"/><rect class="cls-1" x="1" y="49" width="12" height="12" rx="6" ry="6"/><line class="cls-1" x1="11.5" y1="11.5" x2="26.5" y2="26.5"/><line class="cls-1" x1="31" y1="37" x2="31" y2="49"/><line class="cls-1" x1="55" y1="13" x2="55" y2="25"/><line class="cls-1" x1="55" y1="37" x2="55" y2="49"/><line class="cls-1" x1="37" y1="7" x2="49" y2="7"/><line class="cls-1" x1="25" y1="55" x2="13" y2="55"/><line class="cls-1" x1="7" y1="37" x2="7" y2="49"/></g></g></svg>