<svg xmlns="http://www.w3.org/2000/svg" viewBox="0 0 305.81 222"><defs><style>.cls-1{fill:#345972;}.cls-2{fill:#fff;}</style></defs><title>Intro-Logo</title><g id="Слой_2" data-name="Слой 2"><g id="Layer_1" data-name="Layer 1"><circle class="cls-1" cx="152.91" cy="64" r="58.05"/><path class="cls-1" d="M152.91,2.9A61.1,61.1,0,1,1,91.81,64a61.1,61.1,0,0,1,61.1-61.1m0-2.9a64,64,0,1,0,64,64,64.07,64.07,0,0,0-64-64Z"/><path class="cls-2" d="M123.88,56.74h43.54a14.51,14.51,0,0,1,14.51,14.51v0a0,0,0,0,1,0,0H138.39a14.51,14.51,0,0,1-14.51-14.51v0a0,0,0,0,1,0,0Z"/><path class="cls-2" d="M167.42,27.72h-29a14.51,14.51,0,0,0-14.51,14.51v11h14.51v-11h43.54A14.51,14.51,0,0,0,167.42,27.72Z"/><path class="cls-2" d="M167.42,74.74v11H123.88a14.51,14.51,0,0,0,14.51,14.51h29a14.51,14.51,0,0,0,14.51-14.51v-11Z"/><path class="cls-1" d="M1.82,220.55V209.73q11.18,1.08,19.09,1.09a49.53,49.53,0,0,0,7.23-.41A8.35,8.35,0,0,0,32,209a3.91,3.91,0,0,0,1.5-2.18,16,16,0,0,0,.32-3.64,14.84,14.84,0,0,0-.37-3.86A2.89,2.89,0,0,0,32,197.5a10.64,10.64,0,0,0-3.64-.86L15,195.09q-6-.81-9.27-3.14a11.65,11.65,0,0,1-4.5-6A29.24,29.24,0,0,1,0,176.82q0-8,2.91-12.14a13.36,13.36,0,0,1,7.82-5.41A52.07,52.07,0,0,1,23.36,158a98.52,98.52,0,0,1,20.37,1.82v10.54A134.69,134.69,0,0,0,26,169.18q-8.19,0-10.82,1.37a3.26,3.26,0,0,0-1.82,1.9A13.1,13.1,0,0,0,13,176a14.91,14.91,0,0,0,.36,3.91A2.58,2.58,0,0,0,15,181.59a18.24,18.24,0,0,0,4.14.86l14.36,1.73a23.53,23.53,0,0,1,6.91,1.68,9.1,9.1,0,0,1,4.28,4q2.18,3.92,2.18,12.09,0,8.64-2.73,13a12.54,12.54,0,0,1-7.32,5.68,44.85,44.85,0,0,1-12,1.32A156.13,156.13,0,0,1,1.82,220.55Z"/><path class="cls-1" d="M73.09,221.27V170.45H54.91V158.73h49.27v11.72H86v50.82Z"/><path class="cls-1" d="M151,221.27l-4.55-13.45H122.09l-4.46,13.45h-13l21.19-62.54h17.36l21.18,62.54Zm-16.55-50.36H134l-8.46,25.64H143Z"/><path class="cls-1" d="M173.72,220.55V209.73q11.19,1.08,19.09,1.09a49.53,49.53,0,0,0,7.23-.41A8.26,8.26,0,0,0,203.9,209a3.91,3.91,0,0,0,1.5-2.18,15.45,15.45,0,0,0,.32-3.64,14.94,14.94,0,0,0-.36-3.86,2.91,2.91,0,0,0-1.46-1.82,10.57,10.57,0,0,0-3.63-.86l-13.36-1.55q-6-.81-9.28-3.14a11.76,11.76,0,0,1-4.5-6,29.26,29.26,0,0,1-1.22-9.14q0-8,2.9-12.14a13.39,13.39,0,0,1,7.82-5.41A52.22,52.22,0,0,1,195.27,158a98.35,98.35,0,0,1,20.36,1.82v10.54a134.69,134.69,0,0,0-17.73-1.18q-8.18,0-10.81,1.37a3.26,3.26,0,0,0-1.82,1.9,13.1,13.1,0,0,0-.36,3.55,14.91,14.91,0,0,0,.36,3.91,2.56,2.56,0,0,0,1.59,1.68,18.24,18.24,0,0,0,4.14.86l14.36,1.73a23.53,23.53,0,0,1,6.91,1.68,9,9,0,0,1,4.27,4q2.19,3.92,2.18,12.09,0,8.64-2.72,13a12.54,12.54,0,0,1-7.32,5.68A44.88,44.88,0,0,1,196.63,222,156.23,156.23,0,0,1,173.72,220.55Z"/><path class="cls-1" d="M232.45,221.27V158.73h12.91v62.54Z"/><path class="cls-1" d="M260.81,220.55V209.73q11.19,1.08,19.09,1.09a49.53,49.53,0,0,0,7.23-.41A8.31,8.31,0,0,0,291,209a3.91,3.91,0,0,0,1.5-2.18,15.45,15.45,0,0,0,.32-3.64,14.94,14.94,0,0,0-.36-3.86A2.91,2.91,0,0,0,291,197.5a10.57,10.57,0,0,0-3.63-.86L274,195.09q-6-.81-9.27-3.14a11.76,11.76,0,0,1-4.5-6,29.26,29.26,0,0,1-1.22-9.14q0-8,2.9-12.14a13.39,13.39,0,0,1,7.82-5.41A52.16,52.16,0,0,1,282.36,158a98.35,98.35,0,0,1,20.36,1.82v10.54A134.69,134.69,0,0,0,285,169.18q-8.17,0-10.81,1.37a3.26,3.26,0,0,0-1.82,1.9A13,13,0,0,0,272,176a14.81,14.81,0,0,0,.37,3.91,2.56,2.56,0,0,0,1.59,1.68,18.25,18.25,0,0,0,4.13.86l14.37,1.73a23.53,23.53,0,0,1,6.91,1.68,9,9,0,0,1,4.27,4q2.19,3.92,2.18,12.09,0,8.64-2.72,13a12.54,12.54,0,0,1-7.32,5.68,44.88,44.88,0,0,1-12,1.32A156.23,156.23,0,0,1,260.81,220.55Z"/></g></g></svg>