<svg xmlns="http://www.w3.org/2000/svg"
     viewBox="0 0 236.91 64">
    <defs><style>.cls-1{fill:#fff;}</style></defs>
    <title>MainMenu-Logo</title>
    <g id="Слой_2" data-name="Слой 2">
        <g id="Layer_1" data-name="Layer 1">
            <path class="cls-1" d="M32,0A32,32,0,1,0,64,32,32,32,0,0,0,32,0ZM48,44a8,8,0,0,1-8,8H24a8,8,0,0,1-8-8H40V39h8ZM24,36a8,8,0,0,1-8-8H40a8,8,0,0,1,8,8Zm0-16v5H16V20a8,8,0,0,1,8-8H40a8,8,0,0,1,8,8Z"/><path class="cls-1" d="M84.91,47.27V41.86q5.59.55,9.54.55a24,24,0,0,0,3.62-.21,4.2,4.2,0,0,0,1.93-.7,2,2,0,0,0,.75-1.09,7.69,7.69,0,0,0,.16-1.82,7.47,7.47,0,0,0-.18-1.93,1.48,1.48,0,0,0-.73-.91,5.18,5.18,0,0,0-1.82-.43l-6.68-.77A10.6,10.6,0,0,1,86.86,33a6,6,0,0,1-2.25-3A14.61,14.61,0,0,1,84,25.41a10.52,10.52,0,0,1,1.45-6.07,6.68,6.68,0,0,1,3.91-2.7A25.61,25.61,0,0,1,95.68,16a48.8,48.8,0,0,1,10.18.91v5.27A67.27,67.27,0,0,0,97,21.59q-4.09,0-5.41.68a1.66,1.66,0,0,0-.91,1A6.46,6.46,0,0,0,90.5,25,7.39,7.39,0,0,0,90.68,27a1.3,1.3,0,0,0,.8.85,9.42,9.42,0,0,0,2.06.43l7.19.86a11.46,11.46,0,0,1,3.45.84,4.59,4.59,0,0,1,2.14,2A12.86,12.86,0,0,1,107.41,38a12.52,12.52,0,0,1-1.36,6.5,6.29,6.29,0,0,1-3.66,2.84,22.46,22.46,0,0,1-6,.66A76.61,76.61,0,0,1,84.91,47.27Z"/><path class="cls-1" d="M120.54,47.64V22.23h-9.09V16.36h24.64v5.87H127V47.64Z"/><path class="cls-1" d="M159.5,47.64l-2.27-6.73H145l-2.22,6.73h-6.5l10.59-31.28h8.68l10.59,31.28Zm-8.27-25.19H151l-4.23,12.82h8.73Z"/><path class="cls-1" d="M170.86,47.27V41.86q5.59.55,9.55.55A23.88,23.88,0,0,0,184,42.2a4.16,4.16,0,0,0,1.93-.7,1.91,1.91,0,0,0,.75-1.09,7.69,7.69,0,0,0,.16-1.82,7.47,7.47,0,0,0-.18-1.93,1.45,1.45,0,0,0-.73-.91,5.18,5.18,0,0,0-1.82-.43l-6.68-.77A10.56,10.56,0,0,1,172.82,33a5.9,5.9,0,0,1-2.25-3,14.58,14.58,0,0,1-.62-4.57,10.52,10.52,0,0,1,1.46-6.07,6.65,6.65,0,0,1,3.91-2.7,25.47,25.47,0,0,1,6.31-.64,49,49,0,0,1,10.19.91v5.27a67.42,67.42,0,0,0-8.87-.59c-2.72,0-4.53.23-5.41.68a1.66,1.66,0,0,0-.91,1,6.46,6.46,0,0,0-.18,1.77,7.39,7.39,0,0,0,.18,1.95,1.3,1.3,0,0,0,.8.85,9.41,9.41,0,0,0,2.07.43l7.18.86a11.46,11.46,0,0,1,3.45.84,4.54,4.54,0,0,1,2.14,2A12.86,12.86,0,0,1,193.36,38q0,4.32-1.36,6.5a6.29,6.29,0,0,1-3.66,2.84,22.43,22.43,0,0,1-6,.66A76.66,76.66,0,0,1,170.86,47.27Z"/><path class="cls-1" d="M200.22,47.64V16.36h6.46V47.64Z"/><path class="cls-1" d="M214.41,47.27V41.86c3.72.37,6.91.55,9.54.55a24,24,0,0,0,3.62-.21,4.2,4.2,0,0,0,1.93-.7,2,2,0,0,0,.75-1.09,8.27,8.27,0,0,0,.16-1.82,7.37,7.37,0,0,0-.19-1.93,1.47,1.47,0,0,0-.72-.91,5.24,5.24,0,0,0-1.82-.43L221,34.55A10.6,10.6,0,0,1,216.36,33a6,6,0,0,1-2.25-3,14.61,14.61,0,0,1-.61-4.57A10.52,10.52,0,0,1,215,19.34a6.65,6.65,0,0,1,3.91-2.7,25.56,25.56,0,0,1,6.32-.64,48.87,48.87,0,0,1,10.18.91v5.27a67.27,67.27,0,0,0-8.86-.59q-4.09,0-5.41.68a1.63,1.63,0,0,0-.91,1A6.46,6.46,0,0,0,220,25a7.39,7.39,0,0,0,.18,1.95,1.31,1.31,0,0,0,.79.85,9.41,9.41,0,0,0,2.07.43l7.18.86a11.46,11.46,0,0,1,3.46.84,4.59,4.59,0,0,1,2.14,2A13,13,0,0,1,236.91,38q0,4.32-1.37,6.5a6.29,6.29,0,0,1-3.66,2.84,22.38,22.38,0,0,1-6,.66A76.61,76.61,0,0,1,214.41,47.27Z"/></g></g></svg>